HIERARCHY
ROOT Hips
{
	OFFSET 0.00000 0.00000 0.00000
	CHANNELS 6 Xposition Yposition Zposition Zrotation Yrotation Xrotation 
	JOINT LHipJoint
	{
		OFFSET 0 0 0
		CHANNELS 3 Zrotation Yrotation Xrotation
		JOINT LeftUpLeg
		{
			OFFSET 1.62964 -1.40469 0.78906
			CHANNELS 3 Zrotation Yrotation Xrotation
			JOINT LeftLeg
			{
				OFFSET 2.29640 -6.30932 0.00000
				CHANNELS 3 Zrotation Yrotation Xrotation
				JOINT LeftFoot
				{
					OFFSET 2.29451 -6.30412 0.00000
					CHANNELS 3 Zrotation Yrotation Xrotation
					JOINT LeftToeBase
					{
						OFFSET 0.03611 -0.09921 1.56387
						CHANNELS 3 Zrotation Yrotation Xrotation
						End Site
						{
							OFFSET 0.00000 -0.00000 0.80291
						}
					}
				}
			}
		}
	}
	JOINT RHipJoint
	{
		OFFSET 0 0 0
		CHANNELS 3 Zrotation Yrotation Xrotation
		JOINT RightUpLeg
		{
			OFFSET -1.73712 -1.40469 0.78906
			CHANNELS 3 Zrotation Yrotation Xrotation
			JOINT RightLeg
			{
				OFFSET -2.28137 -6.26801 0.00000
				CHANNELS 3 Zrotation Yrotation Xrotation
				JOINT RightFoot
				{
					OFFSET -2.28681 -6.28298 0.00000
					CHANNELS 3 Zrotation Yrotation Xrotation
					JOINT RightToeBase
					{
						OFFSET -0.15927 -0.43759 1.61103
						CHANNELS 3 Zrotation Yrotation Xrotation
						End Site
						{
							OFFSET -0.00000 -0.00000 0.84630
						}
					}
				}
			}
		}
	}
	JOINT LowerBack
	{
		OFFSET 0 0 0
		CHANNELS 3 Zrotation Yrotation Xrotation
		JOINT Spine
		{
			OFFSET -0.04227 2.04338 -0.00225
			CHANNELS 3 Zrotation Yrotation Xrotation
			JOINT Spine1
			{
				OFFSET -0.02148 2.04482 -0.04273
				CHANNELS 3 Zrotation Yrotation Xrotation
				JOINT Neck
				{
					OFFSET 0 0 0
					CHANNELS 3 Zrotation Yrotation Xrotation
					JOINT Neck1
					{
						OFFSET 0.09180 1.44629 0.19359
						CHANNELS 3 Zrotation Yrotation Xrotation
						JOINT Head
						{
							OFFSET 0.00887 1.40645 0.14750
							CHANNELS 3 Zrotation Yrotation Xrotation
							End Site
							{
								OFFSET -0.00669 1.50671 0.03707
							}
						}
					}
				}
				JOINT LeftShoulder
				{
					OFFSET 0 0 0
					CHANNELS 3 Zrotation Yrotation Xrotation
					JOINT LeftArm
					{
						OFFSET 2.17674 1.86763 -0.06520
						CHANNELS 3 Zrotation Yrotation Xrotation
						JOINT LeftForeArm
						{
							OFFSET 4.65776 -0.00000 0.00000
							CHANNELS 3 Zrotation Yrotation Xrotation
							JOINT LeftHand
							{
								OFFSET 3.55539 -0.00000 0.00000
								CHANNELS 3 Zrotation Yrotation Xrotation
								JOINT LeftFingerBase
								{
									OFFSET 0 0 0
									CHANNELS 3 Zrotation Yrotation Xrotation
									JOINT LeftHandIndex1
									{
										OFFSET 0.70726 -0.00000 0.00000
										CHANNELS 3 Zrotation Yrotation Xrotation
										End Site
										{
											OFFSET 0.57022 -0.00000 0.00000
										}
									}
								}
								JOINT LThumb
								{
									OFFSET 0 0 0
									CHANNELS 3 Zrotation Yrotation Xrotation
									End Site
									{
										OFFSET 0.57892 -0.00000 0.57892
									}
								}
							}
						}
					}
				}
				JOINT RightShoulder
				{
					OFFSET 0 0 0
					CHANNELS 3 Zrotation Yrotation Xrotation
					JOINT RightArm
					{
						OFFSET -2.80694 1.55459 -0.32496
						CHANNELS 3 Zrotation Yrotation Xrotation
						JOINT RightForeArm
						{
							OFFSET -4.71925 -0.00000 -0.00000
							CHANNELS 3 Zrotation Yrotation Xrotation
							JOINT RightHand
							{
								OFFSET -3.56990 -0.00000 0.00000
								CHANNELS 3 Zrotation Yrotation Xrotation
								JOINT RightFingerBase
								{
									OFFSET 0 0 0
									CHANNELS 3 Zrotation Yrotation Xrotation
									JOINT RightHandIndex1
									{
										OFFSET -0.50776 -0.00000 0.00000
										CHANNELS 3 Zrotation Yrotation Xrotation
										End Site
										{
											OFFSET -0.40937 -0.00000 0.00000
										}
									}
								}
								JOINT RThumb
								{
									OFFSET 0 0 0
									CHANNELS 3 Zrotation Yrotation Xrotation
									End Site
									{
										OFFSET -0.41562 -0.00000 0.41562
									}
								}
							}
						}
					}
				}
			}
		}
	}
}
MOTION
Frames: 11
Frame Time: .0083333
-0.7618 17.7952 20.1044 183.9690 4.2554 -157.4250 0.0000 0.0000 0.0000 -14.5778 -18.9702 -21.3069 2.1275 9.1267 26.1924 1.3591 -1.3092 -21.6561 3.2663 -11.1142 -32.6660 0.0000 0.0000 0.0000 15.1804 9.0848 -52.0329 -8.6159 -16.5541 54.7521 -2.4110 1.0417 -29.1169 -3.9300 12.0666 -35.9681 -8.7365 -3.9021 -21.1199 -0.3161 -2.7343 1.1141 3.7455 -1.7915 13.6417 -3.3380 0.5758 -2.9678 2.8659 0.9015 8.2571 1.5559 0.5140 3.1502 0.0000 -0.0000 0.0000 -69.3238 3.7891 19.2397 14.5824 -23.5612 -3.0571 -0.0000 -0.0000 1.6786 22.1845 -12.5192 -5.0514 -7.1250 0.0000 -0.0000 -3.5132 16.5114 2.3743 0.0000 -0.0000 0.0000 88.8559 -10.0895 16.1493 -24.7884 35.9870 -8.1653 0.0000 -0.0000 -9.8992 -15.9458 -50.9940 12.5182 7.1250 -0.0000 -0.0000 57.0258 -76.5451 -44.8136
-0.7406 17.7910 20.0735 184.2050 4.1232 -157.5550 0.0000 0.0000 0.0000 -14.2798 -18.9350 -21.1871 2.1852 9.2416 26.5540 1.4016 -1.6605 -21.9065 2.9776 -10.6587 -31.1372 0.0000 0.0000 0.0000 14.5147 9.0312 -52.6633 -8.5565 -16.5137 54.5431 -2.3985 0.8850 -29.0838 -3.6377 11.6621 -34.5468 -8.7699 -3.9651 -21.1661 -0.2624 -2.8132 1.1356 3.7964 -1.8363 13.7103 -3.4455 0.6503 -2.9302 3.1840 0.9896 8.3971 1.6857 0.5695 3.1886 0.0000 0.0000 0.0000 -69.0795 3.8274 19.3596 14.6901 -23.7127 -3.1003 -0.0000 -0.0000 1.3433 22.1391 -12.4574 -5.0156 -7.1250 0.0000 -0.0000 -3.5420 16.5819 2.3885 0.0000 0.0000 0.0000 88.7886 -10.1399 16.0140 -24.6276 35.8209 -8.0709 0.0000 -0.0000 -9.9295 -15.4572 -50.4786 12.0410 7.1250 -0.0000 -0.0000 55.3983 -76.1244 -42.9847
-0.7215 17.7835 20.0314 184.5170 4.0467 -157.6790 0.0000 0.0000 0.0000 -13.9521 -18.7968 -21.0022 2.2284 9.3265 26.8219 1.4354 -1.8479 -22.1290 2.8820 -10.5015 -30.6165 0.0000 0.0000 0.0000 13.9591 8.8272 -53.1707 -8.4211 -16.4204 54.0658 -2.3621 0.6300 -28.9326 -3.5813 11.5814 -34.2668 -8.6798 -3.9656 -21.3060 -0.2192 -2.8284 1.1177 3.7854 -1.8397 13.7689 -3.5123 0.6318 -2.7554 3.5376 0.9495 8.5969 1.8155 0.5662 3.2265 0.0000 0.0000 0.0000 -68.8203 4.0229 19.6054 14.8614 -23.9527 -3.1695 -0.0000 -0.0000 1.2471 21.9503 -12.4621 -4.9704 -7.1250 0.0000 -0.0000 -3.6731 16.5954 2.4762 0.0000 0.0000 0.0000 88.7688 -10.3846 15.9007 -24.5300 35.7198 -8.0139 0.0000 -0.0000 -9.8348 -15.1637 -50.2545 11.7709 7.1250 -0.0000 -0.0000 54.7867 -75.9056 -42.2440
-0.6984 17.7758 20.0044 184.7320 3.7326 -157.6820 0.0000 0.0000 0.0000 -13.5767 -18.7810 -21.1106 2.2883 9.4425 27.1894 1.4378 -2.0193 -22.1061 2.9489 -10.6118 -30.9816 0.0000 0.0000 0.0000 13.3089 8.5481 -53.8561 -8.3021 -16.3370 53.6436 -2.3020 -0.0470 -28.7653 -3.5742 11.5711 -34.2310 -8.6808 -4.0476 -21.2803 -0.1831 -2.9427 1.0238 3.7923 -1.8847 13.6617 -3.5355 0.5665 -2.7015 3.7764 0.8513 8.7682 1.8988 0.5301 3.2802 -0.0000 0.0000 0.0000 -68.4759 4.1950 19.8816 15.0290 -24.1865 -3.2378 -0.0000 -0.0000 1.1847 21.6694 -12.1160 -4.7672 -7.1250 0.0000 -0.0000 -3.8548 16.9912 2.5659 -0.0000 0.0000 0.0000 88.8335 -10.6601 15.7952 -24.4802 35.6680 -7.9849 0.0000 -0.0000 -9.6265 -15.3245 -50.5133 11.9414 7.1250 -0.0000 -0.0000 55.6177 -76.0883 -43.1385
-0.6740 17.7660 19.9781 184.8820 3.5081 -157.7440 0.0000 0.0000 0.0000 -13.3220 -18.7070 -21.1155 2.3331 9.5279 27.4611 1.4549 -2.0868 -22.2244 3.0639 -10.7977 -31.6007 0.0000 0.0000 0.0000 12.4728 8.4084 -54.4550 -8.1590 -16.2350 53.1334 -2.1595 -0.9491 -28.1614 -3.5434 11.5267 -34.0774 -8.8106 -4.1188 -21.2133 -0.1428 -3.0154 0.9661 3.8913 -1.9232 13.5765 -3.5214 0.4681 -2.7190 3.7876 0.7167 8.7702 1.8956 0.4640 3.2900 0.0000 -0.0000 0.0000 -68.1571 4.2039 20.1344 15.1309 -24.3281 -3.2797 -0.0000 -0.0000 1.0599 22.0621 -12.5276 -5.0240 -7.1250 0.0000 -0.0000 -3.5984 16.5146 2.4319 0.0000 -0.0000 0.0000 88.8708 -10.8739 15.5551 -24.4112 35.5961 -7.9446 0.0000 -0.0000 -9.5297 -15.2523 -50.5471 11.8897 7.1250 -0.0000 -0.0000 55.7915 -76.0754 -43.2758
-0.6499 17.7545 19.9370 185.1350 3.3210 -158.0240 0.0000 0.0000 0.0000 -13.0831 -18.6217 -20.7096 2.3531 9.5658 27.5818 1.4863 -2.0149 -22.4879 3.1669 -10.9605 -32.1468 0.0000 0.0000 0.0000 11.7145 8.1787 -54.6547 -7.9594 -16.0893 52.4164 -2.0178 -1.2415 -27.3365 -3.0195 10.7265 -31.3629 -8.8287 -4.1230 -21.0903 -0.1009 -3.0398 1.0002 3.9442 -1.9409 13.5529 -3.4113 0.3799 -2.8049 3.7269 0.5968 8.7997 1.8528 0.4058 3.3209 -0.0000 -0.0000 0.0000 -67.8403 4.1775 20.4355 15.2533 -24.4978 -3.3303 -0.0000 -0.0000 0.8136 22.0777 -12.5353 -5.0310 -7.1250 0.0000 -0.0000 -3.5879 16.5048 2.4256 -0.0000 -0.0000 0.0000 88.8688 -11.1460 15.3667 -24.4049 35.5895 -7.9409 0.0000 -0.0000 -9.6230 -15.0222 -50.4123 11.6849 7.1250 -0.0000 -0.0000 55.4537 -75.9233 -42.8344
-0.6196 17.7452 19.9036 185.4460 3.0993 -158.1800 0.0000 0.0000 0.0000 -12.6405 -18.3305 -20.7172 2.4229 9.6964 27.9991 1.5185 -2.3666 -22.6556 3.1947 -11.0038 -32.2928 0.0000 0.0000 0.0000 11.0191 8.0410 -54.9296 -7.7339 -15.9200 51.5986 -1.8947 -1.2677 -26.5110 -2.3764 9.6096 -27.7215 -8.8393 -4.1605 -20.9414 -0.0265 -3.1165 0.9561 4.0157 -1.9762 13.4316 -3.4351 0.3603 -2.8200 3.8605 0.5668 8.9454 1.9038 0.3989 3.3764 -0.0000 -0.0000 0.0000 -67.5258 4.2435 20.7349 15.4180 -24.7252 -3.3989 -0.0000 -0.0000 0.4956 22.0464 -12.6246 -5.0581 -7.1250 0.0000 -0.0000 -3.6134 16.4126 2.4501 -0.0000 -0.0000 0.0000 88.8032 -11.4516 15.4556 -24.3854 35.5691 -7.9296 0.0000 -0.0000 -9.5938 -14.8702 -50.5444 11.5859 7.1250 -0.0000 -0.0000 56.0379 -75.9243 -43.3391
-0.5915 17.7403 19.8790 185.7100 2.8062 -158.3280 0.0000 0.0000 0.0000 -12.1907 -18.2407 -20.8262 2.5222 9.8782 28.5833 1.5546 -2.6762 -22.8634 3.2245 -11.0500 -32.4485 0.0000 0.0000 0.0000 10.2122 7.9293 -55.1811 -7.4816 -15.7244 50.6730 -1.7128 -1.9192 -25.4864 -2.1747 9.2208 -26.4886 -8.8608 -4.2296 -20.6659 0.0355 -3.2438 0.8772 4.0686 -2.0297 13.2045 -3.5568 0.3426 -2.7400 4.1219 0.5362 9.1126 2.0151 0.3947 3.4224 0.0000 0.0000 0.0000 -67.2014 4.3545 20.9983 15.5722 -24.9371 -3.4636 -0.0000 -0.0000 0.2505 22.1682 -13.0969 -5.2750 -7.1250 0.0000 -0.0000 -3.5502 15.8959 2.4468 0.0000 0.0000 0.0000 88.7791 -11.6604 15.5510 -24.2391 35.4161 -7.8447 0.0000 -0.0000 -9.3594 -15.1861 -50.8375 11.8849 7.1250 -0.0000 -0.0000 56.9116 -76.1780 -44.3487
-0.5613 17.7307 19.8480 186.0600 2.4800 -158.3790 0.0000 0.0000 0.0000 -11.6214 -18.3501 -20.8531 2.5886 9.9972 28.9677 1.5772 -2.8772 -22.9926 3.0913 -10.8415 -31.7470 0.0000 0.0000 0.0000 9.4521 7.9364 -55.4565 -7.2154 -15.5106 49.6845 -1.4667 -3.0129 -24.1339 -2.1838 9.2389 -26.5456 -8.8524 -4.3203 -20.4685 0.1539 -3.4041 0.7110 4.1584 -2.0921 12.9280 -3.6421 0.3729 -2.6681 4.3899 0.5729 9.4158 2.1278 0.4293 3.5144 -0.0000 -0.0000 0.0000 -66.8965 4.6564 21.3318 15.7461 -25.1752 -3.5373 -0.0000 -0.0000 0.0257 22.5244 -14.1675 -5.7959 -7.1250 0.0000 -0.0000 -3.3602 14.7135 2.4008 -0.0000 -0.0000 0.0000 88.7389 -11.9633 15.4981 -24.0721 35.2404 -7.7481 0.0000 -0.0000 -9.0754 -15.1345 -51.1812 11.8998 7.1250 -0.0000 -0.0000 58.2431 -76.3034 -45.6376
-0.5356 17.7150 19.7970 186.4440 2.2591 -158.4830 0.0000 0.0000 0.0000 -11.1696 -18.4384 -20.5575 2.6186 10.0504 29.1400 1.6115 -3.0110 -23.2233 2.9679 -10.6429 -31.0849 0.0000 0.0000 0.0000 8.7208 7.8374 -55.5782 -6.9209 -15.2649 48.5745 -1.2765 -3.7972 -23.0142 -2.1297 9.1311 -26.2063 -8.6026 -4.3253 -21.0738 0.1212 -3.4039 0.9372 3.9477 -2.1003 13.5210 -3.5704 0.3651 -2.7396 4.6948 0.5406 9.5465 2.2211 0.4334 3.5769 0.0000 0.0000 0.0000 -66.3835 4.4035 21.6641 15.9008 -25.3859 -3.6033 -0.0000 0.0000 -0.2928 22.2953 -14.0951 -5.7024 -7.1250 0.0000 -0.0000 -3.5125 14.8165 2.5023 0.0000 0.0000 0.0000 88.9343 -11.8277 15.1731 -23.9456 35.1066 -7.6752 0.0000 -0.0000 -8.6411 -14.1510 -51.7913 11.2060 7.1250 -0.0000 -0.0000 61.1428 -76.1577 -48.0491
-0.5072 17.7028 19.7528 186.8050 2.0440 -158.6010 0.0000 0.0000 0.0000 -10.7211 -18.4055 -20.3606 2.6746 10.1486 29.4593 1.6447 -3.1708 -23.4383 3.0032 -10.7002 -31.2752 0.0000 0.0000 0.0000 8.0007 7.6784 -55.6005 -6.5979 -14.9837 47.3366 -1.1396 -4.4029 -22.1998 -1.9441 8.7486 -25.0121 -8.5684 -4.3173 -21.0006 0.2176 -3.4221 0.7865 4.0405 -2.0974 13.3086 -3.6977 0.2405 -2.5249 4.9785 0.3672 9.7796 2.3375 0.3626 3.6285 0.0000 0.0000 0.0000 -66.1304 4.5376 22.1577 16.1645 -25.7432 -3.7171 -0.0000 0.0000 -0.8376 21.7419 -13.2494 -5.2223 -7.1250 0.0000 -0.0000 -3.8507 15.7770 2.6648 0.0000 0.0000 0.0000 88.8839 -12.4405 15.0318 -23.9772 35.1401 -7.6934 0.0000 -0.0000 -8.6291 -13.8190 -52.1328 10.9890 7.1250 -0.0000 -0.0000 62.6305 -76.1515 -49.3705
